<svg width="24" height="24" viewBox="0 0 24 24" fill="none" xmlns="http://www.w3.org/2000/svg">
<path fill-rule="evenodd" clip-rule="evenodd" d="M22.125 5.425C22.125 5.53546 22.0355 5.625 21.925 5.625H2.075C1.96454 5.625 1.875 5.53546 1.875 5.425V4.7527C1.875 4.43245 2.13558 4.17188 2.45583 4.17188H3.38433L3.81731 2.61413L3.8242 2.58778C3.92784 2.16811 4.30209 1.875 4.73438 1.875H19.2656C19.6979 1.875 20.0722 2.16811 20.1758 2.58778L20.6157 4.17188H21.5625C21.8779 4.17188 22.125 4.42702 22.125 4.7527V5.425ZM19.1468 12H15.415C14.6403 10.8906 13.4084 10.1719 12.0234 10.1719C10.6385 10.1719 9.40655 10.8906 8.63184 12H4.8532L4.34616 7.5H19.6538L19.1468 12ZM16.1887 13.875H18.9355L18.7243 15.75H16.1615C16.2295 15.4256 16.2656 15.0884 16.2656 14.7422C16.2656 14.4457 16.239 14.1559 16.1887 13.875ZM9.65625 14.7422C9.65625 13.256 10.7182 12.0469 12.0234 12.0469C13.3287 12.0469 14.3906 13.256 14.3906 14.7422C14.3906 16.2284 13.3287 17.4375 12.0234 17.4375C10.7182 17.4375 9.65625 16.2284 9.65625 14.7422ZM5.99405 22.125L5.487 17.625H8.73422C9.51272 18.654 10.698 19.3125 12.0234 19.3125C13.3489 19.3125 14.5342 18.654 15.3127 17.625H18.513L18.006 22.125H5.99405ZM7.88541 15.75H5.27573L5.06447 13.875H7.85817C7.80788 14.1559 7.78125 14.4457 7.78125 14.7422C7.78125 15.0884 7.81739 15.4256 7.88541 15.75ZM22.0546 2.34717L21.9925 2.12391C21.6766 0.872625 20.5575 0 19.2656 0H4.73438C3.44255 0 2.32336 0.872625 2.00747 2.12391L1.94452 2.35041C0.834984 2.58633 0 3.57384 0 4.7527V6.5C0 7.05229 0.447715 7.5 1 7.5H2.4593L4.21839 23.112C4.27538 23.6177 4.70315 24 5.21211 24H18.7879C19.2969 24 19.7246 23.6177 19.7816 23.112L21.5407 7.5H23C23.5523 7.5 24 7.05228 24 6.5V4.7527C24 3.56831 23.1636 2.57705 22.0546 2.34717Z" fill="#C28E79"/>
</svg>
