<svg width="25" height="37" viewBox="0 0 25 37" fill="none" xmlns="http://www.w3.org/2000/svg">
<path fill-rule="evenodd" clip-rule="evenodd" d="M21.8025 9.8376H1.35V6.6323H23.1525V9.8376H21.8025ZM20.25 16.3846H4.185L3.4425 11.2016H20.9925L20.25 16.3846ZM18.63 27.7055H5.805L4.3875 17.7486H20.115L18.63 27.7055ZM17.685 34.7981H6.75L5.94 29.1376H18.4275L17.685 34.7981ZM4.7925 4.17717L19.035 1.51745V5.26834H4.7925V4.17717ZM23.085 5.26834H20.3175V0.69907C20.3175 0.289882 20.0475 0.0170898 19.6425 0.0170898C19.575 0.0170898 19.575 0.0170898 19.5075 0.0170898L3.9825 2.9496C3.645 3.0178 3.4425 3.29059 3.4425 3.63158V5.26834H1.35C0.6075 5.26834 0 5.88212 0 6.6323V9.9058C0 10.656 0.6075 11.2698 1.35 11.2698H2.0925L5.535 35.6164C5.6025 35.9574 5.8725 36.2302 6.21 36.2302H18.225C18.5625 36.2302 18.8325 35.9574 18.9 35.6164L22.3425 11.2016H23.085C23.8275 11.2016 24.435 10.5878 24.435 9.8376V6.6323C24.435 5.88212 23.8275 5.26834 23.085 5.26834Z" fill="#2D140D"/>
</svg>
