<svg width="29" height="43" viewBox="0 0 29 43" fill="none" xmlns="http://www.w3.org/2000/svg">
<path fill-rule="evenodd" clip-rule="evenodd" d="M25.5616 11.6678H1.58276V7.86621H27.1443V11.6678H25.5616ZM23.7414 19.4329H4.90655L4.03603 13.2856H24.6119L23.7414 19.4329ZM21.8421 32.86H6.80586L5.14397 21.0506H23.5831L21.8421 32.86ZM20.7341 41.2721H7.91379L6.96414 34.5586H21.6047L20.7341 41.2721ZM5.61879 4.95431L22.3169 1.79976V6.24849H5.61879V4.95431ZM27.0652 6.24849H23.8205V0.829124C23.8205 0.343808 23.504 0.0202637 23.0291 0.0202637C22.95 0.0202637 22.95 0.0202637 22.8709 0.0202637L4.66914 3.49836C4.27345 3.57925 4.03603 3.90279 4.03603 4.30722V6.24849H1.58276C0.712241 6.24849 0 6.97646 0 7.86621V11.7487C0 12.6385 0.712241 13.3665 1.58276 13.3665H2.45328L6.48931 42.2428C6.56845 42.6472 6.885 42.9707 7.28069 42.9707H21.3672C21.7629 42.9707 22.0795 42.6472 22.1586 42.2428L26.1947 13.2856H27.0652C27.9357 13.2856 28.6479 12.5576 28.6479 11.6678V7.86621C28.6479 6.97646 27.9357 6.24849 27.0652 6.24849Z" fill="#2D140D"/>
</svg>
