<svg width="22" height="27" viewBox="0 0 22 27" fill="none" xmlns="http://www.w3.org/2000/svg">
<path fill-rule="evenodd" clip-rule="evenodd" d="M2.11724 4.28182V2.37715H20.1607V4.28182H2.11724ZM17.7586 9.76303H4.46345L3.84897 5.42374H18.3731L17.7586 9.76303ZM16.4179 19.241H5.80414L4.63103 10.905H17.6469L16.4179 19.241ZM15.6359 25.1789H6.58621L5.91586 20.44H16.2503L15.6359 25.1789ZM2.11724 1.23523C1.50276 1.23523 1 1.74909 1 2.37715V4.33891C1 4.96697 1.50276 5.48083 2.11724 5.48083H2.73172L5.58069 25.8641C5.63655 26.1496 5.86 26.378 6.13931 26.378H16.0828C16.3621 26.378 16.5855 26.1496 16.6414 25.8641L19.4903 5.42374H20.1048C20.7193 5.42374 21.2221 4.90987 21.2221 4.28182V2.37715C21.2221 1.74909 20.7193 1.23523 20.1048 1.23523H2.11724Z" fill="#2D140D"/>
<path d="M2.11724 4.28182H1.96724V4.43182H2.11724V4.28182ZM2.11724 2.37715V2.22715H1.96724V2.37715H2.11724ZM20.1607 2.37715H20.3107V2.22715H20.1607V2.37715ZM20.1607 4.28182V4.43182H20.3107V4.28182H20.1607ZM17.7586 9.76303V9.91303H17.8889L17.9071 9.78406L17.7586 9.76303ZM4.46345 9.76303L4.31493 9.78406L4.33319 9.91303H4.46345V9.76303ZM3.84897 5.42374V5.27374H3.67623L3.70045 5.44477L3.84897 5.42374ZM18.3731 5.42374L18.5216 5.44477L18.5458 5.27374H18.3731V5.42374ZM16.4179 19.241V19.391H16.5474L16.5663 19.2628L16.4179 19.241ZM5.80414 19.241L5.6556 19.2619L5.67377 19.391H5.80414V19.241ZM4.63103 10.905V10.755H4.45845L4.4825 10.9259L4.63103 10.905ZM17.6469 10.905L17.7953 10.9268L17.8206 10.755H17.6469V10.905ZM15.6359 25.1789V25.3289H15.7677L15.7846 25.1982L15.6359 25.1789ZM6.58621 25.1789L6.43769 25.2L6.45593 25.3289H6.58621V25.1789ZM5.91586 20.44V20.29H5.74315L5.76734 20.461L5.91586 20.44ZM16.2503 20.44L16.3991 20.4593L16.4211 20.29H16.2503V20.44ZM2.73172 5.48083L2.88028 5.46007L2.86222 5.33083H2.73172V5.48083ZM5.58069 25.8641L5.43191 25.8849L5.43348 25.8929L5.58069 25.8641ZM16.6414 25.8641L16.7888 25.893L16.7899 25.8848L16.6414 25.8641ZM19.4903 5.42374V5.27374H19.3598L19.3418 5.40303L19.4903 5.42374ZM2.26724 4.28182V2.37715H1.96724V4.28182H2.26724ZM2.11724 2.52715H20.1607V2.22715H2.11724V2.52715ZM20.0107 2.37715V4.28182H20.3107V2.37715H20.0107ZM20.1607 4.13182H2.11724V4.43182H20.1607V4.13182ZM17.7586 9.61303H4.46345V9.91303H17.7586V9.61303ZM4.61197 9.742L3.99748 5.4027L3.70045 5.44477L4.31493 9.78406L4.61197 9.742ZM3.84897 5.57374H18.3731V5.27374H3.84897V5.57374ZM18.2246 5.4027L17.6101 9.742L17.9071 9.78406L18.5216 5.44477L18.2246 5.4027ZM16.4179 19.091H5.80414V19.391H16.4179V19.091ZM5.95267 19.2201L4.77957 10.884L4.4825 10.9259L5.6556 19.2619L5.95267 19.2201ZM4.63103 11.055H17.6469V10.755H4.63103V11.055ZM17.4985 10.8831L16.2695 19.2191L16.5663 19.2628L17.7953 10.9268L17.4985 10.8831ZM15.6359 25.0289H6.58621V25.3289H15.6359V25.0289ZM6.73473 25.1579L6.06438 20.419L5.76734 20.461L6.43769 25.2L6.73473 25.1579ZM5.91586 20.59H16.2503V20.29H5.91586V20.59ZM16.1016 20.4207L15.4871 25.1597L15.7846 25.1982L16.3991 20.4593L16.1016 20.4207ZM2.11724 1.08523C1.41684 1.08523 0.85 1.66936 0.85 2.37715H1.15C1.15 1.82883 1.58867 1.38523 2.11724 1.38523V1.08523ZM0.85 2.37715V4.33891H1.15V2.37715H0.85ZM0.85 4.33891C0.85 5.0467 1.41684 5.63083 2.11724 5.63083V5.33083C1.58867 5.33083 1.15 4.88723 1.15 4.33891H0.85ZM2.11724 5.63083H2.73172V5.33083H2.11724V5.63083ZM2.58317 5.50159L5.43213 25.8849L5.72925 25.8433L2.88028 5.46007L2.58317 5.50159ZM5.43348 25.8929C5.49946 26.2301 5.7708 26.528 6.13931 26.528V26.228C5.9492 26.228 5.77364 26.0691 5.7279 25.8353L5.43348 25.8929ZM6.13931 26.528H16.0828V26.228H6.13931V26.528ZM16.0828 26.528C16.4513 26.528 16.7226 26.2301 16.7886 25.8929L16.4942 25.8353C16.4484 26.0691 16.2729 26.228 16.0828 26.228V26.528ZM16.7899 25.8848L19.6389 5.44444L19.3418 5.40303L16.4928 25.8434L16.7899 25.8848ZM19.4903 5.57374H20.1048V5.27374H19.4903V5.57374ZM20.1048 5.57374C20.8052 5.57374 21.3721 4.98961 21.3721 4.28182H21.0721C21.0721 4.83013 20.6334 5.27374 20.1048 5.27374V5.57374ZM21.3721 4.28182V2.37715H21.0721V4.28182H21.3721ZM21.3721 2.37715C21.3721 1.66936 20.8052 1.08523 20.1048 1.08523V1.38523C20.6334 1.38523 21.0721 1.82883 21.0721 2.37715H21.3721ZM20.1048 1.08523H2.11724V1.38523H20.1048V1.08523Z" fill="#2D140D"/>
</svg>
