<svg width="24" height="24" viewBox="0 0 24 24" fill="none" xmlns="http://www.w3.org/2000/svg">
<path d="M15.2046 22.4728H18.0087C18.2448 22.4728 18.4711 22.3791 18.638 22.2122C18.8049 22.0453 18.8987 21.8189 18.8987 21.5829V11.3906H21.4308C21.6729 11.3889 21.8898 11.2405 21.9791 11.0154C22.0684 10.7903 22.0123 10.5336 21.8371 10.3663L12.162 1.25877C11.7949 0.913742 11.2228 0.913742 10.8557 1.25877L1.1839 10.3663C1.00878 10.5336 0.952618 10.7903 1.04191 11.0154C1.13121 11.2405 1.34811 11.3889 1.59025 11.3906H4.12237V21.5829C4.12237 21.8189 4.21613 22.0453 4.38303 22.2122C4.54992 22.3791 4.77628 22.4728 5.01231 22.4728H7.81644C8.37286 22.4728 8.82392 22.0218 8.82392 21.4654V15.7563C8.82392 15.3854 9.12463 15.0847 9.49557 15.0847H13.5255C13.8964 15.0847 14.1971 15.3854 14.1971 15.7563V21.4654C14.1971 22.0218 14.6482 22.4728 15.2046 22.4728Z" stroke="#B98068" stroke-width="2"/>
</svg>
