<svg width="28" height="26" viewBox="0 0 28 26" fill="none" xmlns="http://www.w3.org/2000/svg">
<path fill-rule="evenodd" clip-rule="evenodd" d="M27.4978 21.4621C27.4691 21.4495 24.6472 20.1817 21.0118 17.8339C20.893 17.6231 20.7626 17.4161 20.6161 17.2151C20.5083 17.0672 20.3923 16.9229 20.2696 16.7825C20.4514 16.7412 20.6304 16.6923 20.8051 16.6355C24.2758 15.5125 25.9774 11.5337 26.0482 11.3647C26.2102 10.9793 26.0649 10.5345 25.7066 10.3171C25.5701 10.2339 22.7267 8.53904 19.7026 8.84456C21.2201 6.897 22.4343 4.90096 23.3252 2.88279C23.3336 2.86461 23.3408 2.84601 23.3474 2.82727C23.8729 1.36632 23.8082 0.51246 23.1451 0.139858C22.3 -0.335759 21.4401 0.429879 20.1485 2.00808C19.8523 2.37039 19.907 2.90266 20.2706 3.19776C20.5669 3.43831 20.977 3.44649 21.2783 3.24567C20.3956 5.00214 19.2471 6.7417 17.85 8.4449C17.6682 4.96423 14.5821 2.28443 14.4472 2.16887C14.1289 1.89689 13.6592 1.89689 13.3409 2.16887C13.2087 2.28175 10.2608 4.8436 9.95634 8.20815C8.6465 6.58105 7.56332 4.92069 6.72108 3.24567C7.02286 3.44705 7.43287 3.43831 7.72913 3.19776C8.09274 2.90266 8.14749 2.37039 7.85123 2.00808C6.56021 0.429879 5.70029 -0.334772 4.85465 0.139858C4.19153 0.51246 4.12687 1.36688 4.65248 2.82727C4.65913 2.84601 4.6662 2.86461 4.67455 2.88279C5.56984 4.91139 6.79125 6.91673 8.31996 8.87317C5.20949 8.45153 2.22239 10.2324 2.08204 10.3171C1.72395 10.5345 1.57851 10.9798 1.73994 11.3653C1.81068 11.5342 3.51284 15.5125 6.98353 16.6355C7.15882 16.6923 7.33723 16.7412 7.5196 16.7825C7.39693 16.9229 7.28092 17.0672 7.17311 17.2157C6.97857 17.4816 6.8112 17.7585 6.66463 18.0415C3.19564 20.251 0.528996 21.45 0.501973 21.4621C0.0741327 21.6532 -0.117009 22.1531 0.0741327 22.5791C0.215614 22.8934 0.525176 23.0795 0.849593 23.0795C0.965608 23.0795 1.08332 23.0558 1.19608 23.0057C1.29229 22.9628 3.18729 22.1118 5.89864 20.501C5.58809 22.5869 6.0131 24.4325 6.04069 24.5492C6.13251 24.9329 6.47674 25.2 6.86638 25.2C6.88958 25.2 6.91279 25.1989 6.93599 25.1972C7.11892 25.1824 11.4436 24.7992 13.5885 21.858C13.6968 21.7099 13.7984 21.5557 13.8946 21.3961C13.9903 21.5557 14.0924 21.7099 14.2002 21.858C16.3456 24.7992 20.6703 25.1824 20.8532 25.1972C21.2726 25.2297 21.6512 24.9555 21.748 24.5492C21.7767 24.4304 22.2194 22.5037 21.8674 20.3613C24.7008 22.0616 26.7025 22.9606 26.8042 23.0057C26.9164 23.0558 27.0347 23.0801 27.1502 23.0801C27.4746 23.0801 27.7847 22.8934 27.9256 22.5797C28.1173 22.1531 27.9256 21.6527 27.4978 21.4621ZM24.1338 11.4071C23.5519 12.4557 22.2498 14.3902 20.2812 15.027C19.6501 15.2312 18.9393 15.3017 18.17 15.2373C17.776 15.206 17.4128 15.4454 17.2913 15.8186C17.2626 15.9061 17.2499 15.9953 17.2504 16.0834L17.0747 15.0651L19.0233 13.1736C19.2549 12.9484 19.3378 12.6126 19.2384 12.3065C19.1383 12.0005 18.8725 11.7776 18.5525 11.7312L17.3465 11.5562C17.8412 11.1791 18.3551 10.9012 18.8796 10.7317C20.8388 10.0975 23.0417 10.9006 24.1338 11.4071ZM15.326 14.9131L15.5703 16.3339L14.2892 15.6629C14.166 15.5985 14.03 15.5659 13.8946 15.5659C13.7587 15.5659 13.6233 15.5985 13.4995 15.6629L12.2183 16.3339L12.4632 14.9131C12.5102 14.6383 12.419 14.3588 12.2189 14.1644L11.1827 13.1581L12.6146 12.9506C12.8915 12.911 13.1303 12.7376 13.2541 12.4883L13.8946 11.1957L14.5351 12.4883C14.6589 12.7381 14.8977 12.911 15.174 12.9506L16.6065 13.1581L15.5698 14.1644C15.3697 14.3588 15.2784 14.6383 15.326 14.9131ZM13.8957 3.99595C14.7175 4.87122 16.1616 6.70267 16.1616 8.7648C16.1616 9.42587 16.0096 10.1206 15.7095 10.8307C15.6924 10.8715 15.6791 10.9139 15.6692 10.9557L14.6556 8.91065C14.5125 8.62218 14.2173 8.43941 13.8946 8.43941C13.5713 8.43941 13.2762 8.62218 13.133 8.91065L12.12 10.9562C12.1073 10.905 12.0913 10.8544 12.0687 10.8059C11.7756 10.1046 11.6271 9.41812 11.6271 8.7648C11.6271 6.71253 13.075 4.8739 13.8957 3.99595ZM7.508 15.027C5.5489 14.3929 4.2402 12.4535 3.65602 11.4043C4.74529 10.8968 6.94052 10.0941 8.90966 10.7317C9.43413 10.9012 9.94799 11.1791 10.4427 11.5562L9.23619 11.7312C8.91673 11.7776 8.65103 12.0005 8.551 12.3065C8.45083 12.6126 8.5343 12.9484 8.76591 13.1736L10.7141 15.0651L10.5399 16.079C10.5394 15.654 10.2216 15.2935 9.7966 15.2407C9.73195 15.2329 9.66729 15.2323 9.6032 15.2384C8.83948 15.3011 8.13476 15.2302 7.508 15.027ZM20.2215 23.3955C19.0404 23.1687 16.7912 22.5323 15.5741 20.8638C15.1895 20.3364 14.9049 19.6962 14.7281 18.9602C14.6684 18.652 14.4373 18.3904 14.1135 18.3046C13.6697 18.1874 13.2132 18.4417 13.0811 18.8793C13.075 18.8992 13.0701 18.9189 13.0657 18.9393C12.8888 19.6847 12.603 20.3321 12.2145 20.8638C11.0041 22.5234 8.74992 23.1637 7.56714 23.3938C7.4207 22.2014 7.33567 19.8686 8.54647 18.2094C8.93116 17.6814 9.45507 17.2141 10.1045 16.8189C10.2851 16.7181 10.4228 16.5535 10.4918 16.3571L10.2543 17.7366C10.1995 18.0542 10.3306 18.3745 10.5919 18.5639C10.8533 18.7528 11.1998 18.7774 11.4856 18.6278L13.8941 17.3666L16.3026 18.6278C16.4269 18.6933 16.5623 18.7251 16.6972 18.7251H16.6999C17.1686 18.7251 17.5482 18.3465 17.5482 17.8796C17.5482 17.8086 17.54 17.7398 17.5233 17.6737L17.2968 16.3576C17.3598 16.5387 17.4841 16.6984 17.6583 16.8035C18.3192 17.2015 18.852 17.6748 19.2422 18.2094C20.4536 19.8696 20.368 22.2048 20.2215 23.3955Z" fill="#2D140D"/>
</svg>
