<svg width="22" height="27" viewBox="0 0 22 27" fill="none" xmlns="http://www.w3.org/2000/svg">
<path d="M1.17713 12.6551L2.16613 12.5072L2.16263 12.4838L2.15803 12.4606L1.17713 12.6551ZM1.24508 12.9829L0.269805 13.2039L0.270187 13.2056L1.24508 12.9829ZM1.91205 14.9135L2.82996 14.5167L2.82358 14.5019L2.81672 14.4874L1.91205 14.9135ZM10.5269 25.2985L9.90757 26.0836L9.90844 26.0843L10.5269 25.2985ZM11.413 25.2985L12.0315 26.0843L12.0327 26.0833L11.413 25.2985ZM20.0279 14.9135L19.1233 14.4873L19.1164 14.5019L19.1099 14.5168L20.0279 14.9135ZM20.6951 12.9829L21.6703 13.2044L21.6704 13.2039L20.6951 12.9829ZM20.7628 12.6551L19.7804 12.4685L19.776 12.4913L19.7728 12.5143L20.7628 12.6551ZM20.9399 10.8168H21.9399L21.9399 10.8149L20.9399 10.8168ZM10.9649 0.0256348C4.9361 0.0256348 0 4.85061 0 10.8168H2C2 5.98819 6.00736 2.02563 10.9649 2.02563V0.0256348ZM0 10.8168C0 11.4927 0.0629392 12.1775 0.196239 12.8497L2.15803 12.4606C2.05159 11.9239 2 11.3697 2 10.8168H0ZM0.188134 12.803C0.199558 12.8794 0.228067 13.0197 0.269806 13.2039L2.22036 12.7619C2.20077 12.6755 2.1867 12.6097 2.1773 12.5636C2.16669 12.5115 2.16466 12.4974 2.16613 12.5072L0.188134 12.803ZM0.270187 13.2056C0.437122 13.9365 0.684933 14.655 1.00738 15.3396L2.81672 14.4874C2.55546 13.9327 2.3548 13.3505 2.21998 12.7602L0.270187 13.2056ZM0.99414 15.3103C2.13494 17.9494 4.59979 21.8966 9.90757 26.0836L11.1462 24.5133C6.09324 20.5274 3.83639 16.845 2.82996 14.5167L0.99414 15.3103ZM9.90844 26.0843C10.2192 26.3289 10.5948 26.4523 10.97 26.4523V24.4523C11.0327 24.4523 11.0952 24.4731 11.1454 24.5126L9.90844 26.0843ZM10.97 26.4523C11.3456 26.4523 11.7208 26.3288 12.0315 26.0843L10.7946 24.5126C10.8446 24.4732 10.9073 24.4523 10.97 24.4523V26.4523ZM12.0327 26.0833C17.3347 21.8968 19.8051 17.9498 20.9458 15.3102L19.1099 14.5168C18.104 16.8445 15.842 20.5272 10.7933 24.5136L12.0327 26.0833ZM20.9325 15.3397C21.2545 14.6562 21.5027 13.9423 21.6703 13.2044L19.7199 12.7615C19.5852 13.3547 19.3851 13.9315 19.1233 14.4873L20.9325 15.3397ZM21.6704 13.2039C21.7115 13.0225 21.7412 12.8774 21.7528 12.796L19.7728 12.5143C19.7744 12.5031 19.775 12.501 19.7725 12.5141C19.7706 12.5248 19.7674 12.5412 19.7627 12.5641C19.7535 12.6098 19.7394 12.6754 19.7198 12.7619L21.6704 13.2039ZM21.7452 12.8417C21.8709 12.1802 21.9399 11.4981 21.9399 10.8168H19.9399C19.9399 11.3642 19.8843 11.9213 19.7804 12.4685L21.7452 12.8417ZM21.9399 10.8149C21.9287 4.85058 16.9941 0.0256348 10.9649 0.0256348V2.02563C15.922 2.02563 19.9308 5.98822 19.9399 10.8187L21.9399 10.8149ZM10.9649 14.7584C8.78591 14.7584 7.04502 13.0189 7.04502 10.9243H5.04502C5.04502 14.1551 7.71324 16.7584 10.9649 16.7584V14.7584ZM7.04502 10.9243C7.04502 8.83014 8.79029 7.09023 10.9649 7.09023V5.09023C7.71903 5.09023 5.04502 7.69256 5.04502 10.9243H7.04502ZM10.9649 7.09023C13.1392 7.09023 14.8847 8.83016 14.8847 10.9243H16.8847C16.8847 7.69254 14.2105 5.09023 10.9649 5.09023V7.09023ZM14.8847 10.9243C14.8847 13.0189 13.1438 14.7584 10.9649 14.7584V16.7584C14.2165 16.7584 16.8847 14.1551 16.8847 10.9243H14.8847Z" fill="#B98068"/>
</svg>
