<svg width="22" height="23" viewBox="0 0 22 23" fill="none" xmlns="http://www.w3.org/2000/svg">
<path d="M20.6875 18.5284V21.3438C20.6875 21.7062 20.3937 22 20.0312 22H1.65625C1.29381 22 1 21.7062 1 21.3438V18.5284C0.999492 17.4583 1.64861 16.495 2.64063 16.0938L7.5625 14.125V10.2498C6.95399 9.89852 6.57885 9.24952 6.57813 8.54688V5.26562C6.57813 2.90979 8.48791 1 10.8438 1C13.1996 1 15.1094 2.90979 15.1094 5.26562V8.54688C15.1087 9.24952 14.7335 9.89852 14.125 10.2498V14.125L19.0469 16.0938C20.0389 16.495 20.688 17.4583 20.6875 18.5284Z" stroke="#C28E79" stroke-width="2"/>
</svg>
