<svg width="25" height="22" viewBox="0 0 25 22" fill="none" xmlns="http://www.w3.org/2000/svg">
<path d="M23.1998 19.963C23.1998 20.1031 23.0931 20.1852 22.9998 20.1852V22.1852C24.2321 22.1852 25.1998 21.1729 25.1998 19.963H23.1998ZM22.9998 20.1852H15.7998V22.1852H22.9998V20.1852ZM15.7998 20.1852C15.7066 20.1852 15.5998 20.1031 15.5998 19.963H13.5998C13.5998 21.1729 14.5676 22.1852 15.7998 22.1852V20.1852ZM15.5998 19.963V12.6296H13.5998V19.963H15.5998ZM15.5998 12.6296C15.5998 12.4895 15.7066 12.4074 15.7998 12.4074V10.4074C14.5676 10.4074 13.5998 11.4197 13.5998 12.6296H15.5998ZM15.7998 12.4074H22.9998V10.4074H15.7998V12.4074ZM22.9998 12.4074C23.0931 12.4074 23.1998 12.4895 23.1998 12.6296H25.1998C25.1998 11.4197 24.2321 10.4074 22.9998 10.4074V12.4074ZM23.1998 12.6296V19.963H25.1998V12.6296H23.1998ZM10.3998 12.6296V19.963H12.3998V12.6296H10.3998ZM10.3998 19.963C10.3998 20.1031 10.2931 20.1852 10.1998 20.1852V22.1852C11.4321 22.1852 12.3998 21.1729 12.3998 19.963H10.3998ZM10.1998 20.1852H2.9998V22.1852H10.1998V20.1852ZM2.9998 20.1852C2.90656 20.1852 2.7998 20.1031 2.7998 19.963H0.799805C0.799805 21.1729 1.76755 22.1852 2.9998 22.1852V20.1852ZM2.7998 19.963V12.6296H0.799805V19.963H2.7998ZM2.7998 12.6296C2.7998 12.4895 2.90656 12.4074 2.9998 12.4074V10.4074C1.76755 10.4074 0.799805 11.4197 0.799805 12.6296H2.7998ZM2.9998 12.4074H10.1998V10.4074H2.9998V12.4074ZM10.1998 12.4074C10.2931 12.4074 10.3998 12.4895 10.3998 12.6296H12.3998C12.3998 11.4197 11.4321 10.4074 10.1998 10.4074V12.4074ZM9.1998 9.37037V2.03704H7.1998V9.37037H9.1998ZM9.1998 2.03704C9.1998 1.89693 9.30656 1.81482 9.3998 1.81482V-0.185181C8.16755 -0.185181 7.1998 0.827111 7.1998 2.03704H9.1998ZM9.3998 1.81482H16.5998V-0.185181H9.3998V1.81482ZM16.5998 1.81482C16.6931 1.81482 16.7998 1.89693 16.7998 2.03704H18.7998C18.7998 0.827111 17.8321 -0.185181 16.5998 -0.185181V1.81482ZM16.7998 2.03704V9.37037H18.7998V2.03704H16.7998ZM16.7998 9.37037C16.7998 9.51049 16.6931 9.5926 16.5998 9.5926V11.5926C17.8321 11.5926 18.7998 10.5803 18.7998 9.37037H16.7998ZM16.5998 9.5926H9.3998V11.5926H16.5998V9.5926ZM9.3998 9.5926C9.30656 9.5926 9.1998 9.51049 9.1998 9.37037H7.1998C7.1998 10.5803 8.16755 11.5926 9.3998 11.5926V9.5926Z" fill="#2D140D"/>
</svg>
