<svg width="26" height="18" viewBox="0 0 26 18" fill="none" xmlns="http://www.w3.org/2000/svg">
<path d="M23.1998 14.9629C23.1998 15.103 23.0931 15.1851 22.9998 15.1851V17.1851C24.2321 17.1851 25.1998 16.1728 25.1998 14.9629H23.1998ZM22.9998 15.1851H15.7998V17.1851H22.9998V15.1851ZM15.7998 15.1851C15.7066 15.1851 15.5998 15.103 15.5998 14.9629H13.5998C13.5998 16.1728 14.5676 17.1851 15.7998 17.1851V15.1851ZM15.5998 14.9629V7.62957H13.5998V14.9629H15.5998ZM15.5998 7.62957C15.5998 7.48945 15.7066 7.40735 15.7998 7.40735V5.40735C14.5676 5.40735 13.5998 6.41964 13.5998 7.62957H15.5998ZM15.7998 7.40735H22.9998V5.40735H15.7998V7.40735ZM22.9998 7.40735C23.0931 7.40735 23.1998 7.48946 23.1998 7.62957H25.1998C25.1998 6.41964 24.2321 5.40735 22.9998 5.40735V7.40735ZM23.1998 7.62957V14.9629H25.1998V7.62957H23.1998ZM10.3998 2.62957V9.9629H12.3998V2.62957H10.3998ZM10.3998 9.9629C10.3998 10.103 10.2931 10.1851 10.1998 10.1851V12.1851C11.4321 12.1851 12.3998 11.1728 12.3998 9.9629H10.3998ZM10.1998 10.1851H2.9998V12.1851H10.1998V10.1851ZM2.9998 10.1851C2.90656 10.1851 2.7998 10.103 2.7998 9.9629H0.799805C0.799805 11.1728 1.76755 12.1851 2.9998 12.1851V10.1851ZM2.7998 9.9629V2.62957H0.799805V9.9629H2.7998ZM2.7998 2.62957C2.7998 2.48945 2.90656 2.40735 2.9998 2.40735V0.407349C1.76755 0.407349 0.799805 1.41964 0.799805 2.62957H2.7998ZM2.9998 2.40735H10.1998V0.407349H2.9998V2.40735ZM10.1998 2.40735C10.2931 2.40735 10.3998 2.48946 10.3998 2.62957H12.3998C12.3998 1.41964 11.4321 0.407349 10.1998 0.407349V2.40735Z" fill="#2D140D"/>
</svg>
